<?xml version="1.0" encoding="utf-8" standalone="no"?>
<!DOCTYPE svg PUBLIC "-//W3C//DTD SVG 1.1//EN" "http://www.w3.org/Graphics/SVG/1.1/DTD/svg11.dtd">
<svg width="3000px" height="3000px" version="1.1" xmlns="http://www.w3.org/2000/svg" xmlns:xlink="http://www.w3.org/1999/xlink">
<g id="bg">
<rect x="0" y="0" width="3000px" height="3000px" style="fill:rgb(255,255,255);"/>
</g>
<g id="ideograms">
<path d="M1500.000,325.000 A1175.000,1175.000 40.000 0,1 2130.116,508.245 L2183.743,423.840 A1275.000,1275.000 0.000 0,0 1500.000,225.000 Z" style="stroke-width:1.0;stroke:rgb(0,0,0);stroke-linecap:round;fill:rgb(239,243,255);" />
<text x="1886.1" y="258.1" font-size="62.4px" font-family="CMUBright-Roman" style="text-anchor:start;fill:rgb(0,0,0);" transform="rotate(286.2,1886.1,258.1)" >LG1</text>
<path d="M1500.000,325.000 A1175.000,1175.000 40.000 0,1 2130.116,508.245 L2183.743,423.840 A1275.000,1275.000 0.000 0,0 1500.000,225.000 Z" style="stroke-width:1.0;stroke:rgb(0,0,0);stroke-linecap:round;fill:none;" />
<path d="M2133.614,510.476 A1175.000,1175.000 40.000 0,1 2329.622,667.923 L2400.228,597.108 A1275.000,1275.000 0.000 0,0 2187.538,426.261 Z" style="stroke-width:1.0;stroke:rgb(0,0,0);stroke-linecap:round;fill:rgb(239,243,255);" />
<text x="2333.0" y="501.3" font-size="62.4px" font-family="CMUBright-Roman" style="text-anchor:start;fill:rgb(0,0,0);" transform="rotate(308.8,2333.0,501.3)" >LG2</text>
<path d="M2133.614,510.476 A1175.000,1175.000 40.000 0,1 2329.622,667.923 L2400.228,597.108 A1275.000,1275.000 0.000 0,0 2187.538,426.261 Z" style="stroke-width:1.0;stroke:rgb(0,0,0);stroke-linecap:round;fill:none;" />
<path d="M2332.554,670.857 A1175.000,1175.000 40.000 0,1 2516.317,910.318 L2602.812,860.133 A1275.000,1275.000 0.000 0,0 2403.410,600.291 Z" style="stroke-width:1.0;stroke:rgb(0,0,0);stroke-linecap:round;fill:rgb(239,243,255);" />
<text x="2546.2" y="727.4" font-size="62.4px" font-family="CMUBright-Roman" style="text-anchor:start;fill:rgb(0,0,0);" transform="rotate(322.5,2546.2,727.4)" >LG3</text>
<path d="M2332.554,670.857 A1175.000,1175.000 40.000 0,1 2516.317,910.318 L2602.812,860.133 A1275.000,1275.000 0.000 0,0 2403.410,600.291 Z" style="stroke-width:1.0;stroke:rgb(0,0,0);stroke-linecap:round;fill:none;" />
<path d="M2518.393,913.910 A1175.000,1175.000 40.000 0,1 2638.252,1208.439 L2735.124,1183.626 A1275.000,1275.000 0.000 0,0 2605.064,864.030 Z" style="stroke-width:1.0;stroke:rgb(0,0,0);stroke-linecap:round;fill:rgb(239,243,255);" />
<text x="2713.4" y="1032.1" font-size="62.4px" font-family="CMUBright-Roman" style="text-anchor:start;fill:rgb(0,0,0);" transform="rotate(337.9,2713.4,1032.1)" >LG4</text>
<path d="M2518.393,913.910 A1175.000,1175.000 40.000 0,1 2638.252,1208.439 L2735.124,1183.626 A1275.000,1275.000 0.000 0,0 2605.064,864.030 Z" style="stroke-width:1.0;stroke:rgb(0,0,0);stroke-linecap:round;fill:none;" />
<path d="M2639.274,1212.460 A1175.000,1175.000 40.000 0,1 2671.054,1403.783 L2770.718,1395.594 A1275.000,1275.000 0.000 0,0 2736.234,1187.988 Z" style="stroke-width:1.0;stroke:rgb(0,0,0);stroke-linecap:round;fill:rgb(239,243,255);" />
<text x="2786.6" y="1310.6" font-size="62.4px" font-family="CMUBright-Roman" style="text-anchor:start;fill:rgb(0,0,0);" transform="rotate(350.6,2786.6,1310.6)" >LG5</text>
<path d="M2639.274,1212.460 A1175.000,1175.000 40.000 0,1 2671.054,1403.783 L2770.718,1395.594 A1275.000,1275.000 0.000 0,0 2736.234,1187.988 Z" style="stroke-width:1.0;stroke:rgb(0,0,0);stroke-linecap:round;fill:none;" />
<path d="M2671.386,1407.917 A1175.000,1175.000 40.000 0,1 2646.528,1757.098 L2744.104,1778.979 A1275.000,1275.000 0.000 0,0 2771.079,1400.081 Z" style="stroke-width:1.0;stroke:rgb(0,0,0);stroke-linecap:round;fill:rgb(239,243,255);" />
<text x="2795.3" y="1616.3" font-size="62.4px" font-family="CMUBright-Roman" style="text-anchor:start;fill:rgb(0,0,0);" transform="rotate(4.1,2795.3,1616.3)" >LG6</text>
<path d="M2671.386,1407.917 A1175.000,1175.000 40.000 0,1 2646.528,1757.098 L2744.104,1778.979 A1275.000,1275.000 0.000 0,0 2771.079,1400.081 Z" style="stroke-width:1.0;stroke:rgb(0,0,0);stroke-linecap:round;fill:none;" />
<path d="M2645.613,1761.144 A1175.000,1175.000 40.000 0,1 2597.976,1918.418 L2691.421,1954.028 A1275.000,1275.000 0.000 0,0 2743.112,1783.370 Z" style="stroke-width:1.0;stroke:rgb(0,0,0);stroke-linecap:round;fill:rgb(239,243,255);" />
<text x="2737.5" y="1899.9" font-size="62.4px" font-family="CMUBright-Roman" style="text-anchor:start;fill:rgb(0,0,0);" transform="rotate(16.9,2737.5,1899.9)" >LG7</text>
<path d="M2645.613,1761.144 A1175.000,1175.000 40.000 0,1 2597.976,1918.418 L2691.421,1954.028 A1275.000,1275.000 0.000 0,0 2743.112,1783.370 Z" style="stroke-width:1.0;stroke:rgb(0,0,0);stroke-linecap:round;fill:none;" />
<path d="M2596.492,1922.292 A1175.000,1175.000 40.000 0,1 2498.268,2119.747 L2583.227,2172.491 A1275.000,1275.000 0.000 0,0 2689.810,1958.232 Z" style="stroke-width:1.0;stroke:rgb(0,0,0);stroke-linecap:round;fill:rgb(239,243,255);" />
<text x="2653.5" y="2100.6" font-size="62.4px" font-family="CMUBright-Roman" style="text-anchor:start;fill:rgb(0,0,0);" transform="rotate(26.4,2653.5,2100.6)" >LG8</text>
<path d="M2596.492,1922.292 A1175.000,1175.000 40.000 0,1 2498.268,2119.747 L2583.227,2172.491 A1275.000,1275.000 0.000 0,0 2689.810,1958.232 Z" style="stroke-width:1.0;stroke:rgb(0,0,0);stroke-linecap:round;fill:none;" />
<path d="M2496.074,2123.267 A1175.000,1175.000 40.000 0,1 2404.794,2249.648 L2481.798,2313.448 A1275.000,1275.000 0.000 0,0 2580.846,2176.311 Z" style="stroke-width:1.0;stroke:rgb(0,0,0);stroke-linecap:round;fill:rgb(239,243,255);" />
<text x="2540.0" y="2280.8" font-size="62.4px" font-family="CMUBright-Roman" style="text-anchor:start;fill:rgb(0,0,0);" transform="rotate(35.8,2540.0,2280.8)" >LG9</text>
<path d="M2496.074,2123.267 A1175.000,1175.000 40.000 0,1 2404.794,2249.648 L2481.798,2313.448 A1275.000,1275.000 0.000 0,0 2580.846,2176.311 Z" style="stroke-width:1.0;stroke:rgb(0,0,0);stroke-linecap:round;fill:none;" />
<path d="M2402.142,2252.838 A1175.000,1175.000 40.000 0,1 2185.587,2454.251 L2243.935,2535.464 A1275.000,1275.000 0.000 0,0 2478.920,2316.909 Z" style="stroke-width:1.0;stroke:rgb(0,0,0);stroke-linecap:round;fill:rgb(239,243,255);" />
<text x="2368.0" y="2468.5" font-size="62.4px" font-family="CMUBright-Roman" style="text-anchor:start;fill:rgb(0,0,0);" transform="rotate(47.1,2368.0,2468.5)" >LG10</text>
<path d="M2402.142,2252.838 A1175.000,1175.000 40.000 0,1 2185.587,2454.251 L2243.935,2535.464 A1275.000,1275.000 0.000 0,0 2478.920,2316.909 Z" style="stroke-width:1.0;stroke:rgb(0,0,0);stroke-linecap:round;fill:none;" />
<path d="M2182.214,2456.666 A1175.000,1175.000 40.000 0,1 2028.098,2549.637 L2073.043,2638.967 A1275.000,1275.000 0.000 0,0 2240.275,2538.084 Z" style="stroke-width:1.0;stroke:rgb(0,0,0);stroke-linecap:round;fill:rgb(239,243,255);" />
<text x="2151.1" y="2625.8" font-size="62.4px" font-family="CMUBright-Roman" style="text-anchor:start;fill:rgb(0,0,0);" transform="rotate(58.9,2151.1,2625.8)" >LG11</text>
<path d="M2182.214,2456.666 A1175.000,1175.000 40.000 0,1 2028.098,2549.637 L2073.043,2638.967 A1275.000,1275.000 0.000 0,0 2240.275,2538.084 Z" style="stroke-width:1.0;stroke:rgb(0,0,0);stroke-linecap:round;fill:none;" />
<path d="M2024.390,2551.494 A1175.000,1175.000 40.000 0,1 1830.003,2627.707 L1858.088,2723.682 A1275.000,1275.000 0.000 0,0 2069.018,2640.983 Z" style="stroke-width:1.0;stroke:rgb(0,0,0);stroke-linecap:round;fill:rgb(239,243,255);" />
<text x="1952.3" y="2719.3" font-size="62.4px" font-family="CMUBright-Roman" style="text-anchor:start;fill:rgb(0,0,0);" transform="rotate(68.6,1952.3,2719.3)" >LG12</text>
<path d="M2024.390,2551.494 A1175.000,1175.000 40.000 0,1 1830.003,2627.707 L1858.088,2723.682 A1275.000,1275.000 0.000 0,0 2069.018,2640.983 Z" style="stroke-width:1.0;stroke:rgb(0,0,0);stroke-linecap:round;fill:none;" />
<path d="M1826.020,2628.865 A1175.000,1175.000 40.000 0,1 1686.961,2660.030 L1702.872,2758.756 A1275.000,1275.000 0.000 0,0 1853.766,2724.939 Z" style="stroke-width:1.0;stroke:rgb(0,0,0);stroke-linecap:round;fill:rgb(239,243,255);" />
<text x="1760.9" y="2774.1" font-size="62.4px" font-family="CMUBright-Roman" style="text-anchor:start;fill:rgb(0,0,0);" transform="rotate(77.4,1760.9,2774.1)" >LG13</text>
<path d="M1826.020,2628.865 A1175.000,1175.000 40.000 0,1 1686.961,2660.030 L1702.872,2758.756 A1275.000,1275.000 0.000 0,0 1853.766,2724.939 Z" style="stroke-width:1.0;stroke:rgb(0,0,0);stroke-linecap:round;fill:none;" />
<path d="M1682.864,2660.683 A1175.000,1175.000 40.000 0,1 1565.791,2673.157 L1571.390,2773.000 A1275.000,1275.000 0.000 0,0 1698.427,2759.465 Z" style="stroke-width:1.0;stroke:rgb(0,0,0);stroke-linecap:round;fill:rgb(239,243,255);" />
<text x="1613.9" y="2795.5" font-size="62.4px" font-family="CMUBright-Roman" style="text-anchor:start;fill:rgb(0,0,0);" transform="rotate(83.9,1613.9,2795.5)" >LG14</text>
<path d="M1682.864,2660.683 A1175.000,1175.000 40.000 0,1 1565.791,2673.157 L1571.390,2773.000 A1275.000,1275.000 0.000 0,0 1698.427,2759.465 Z" style="stroke-width:1.0;stroke:rgb(0,0,0);stroke-linecap:round;fill:none;" />
<path d="M1561.649,2673.382 A1175.000,1175.000 40.000 0,1 1426.354,2672.690 L1420.087,2772.493 A1275.000,1275.000 0.000 0,0 1566.895,2773.244 Z" style="stroke-width:1.0;stroke:rgb(0,0,0);stroke-linecap:round;fill:rgb(239,243,255);" />
<text x="1517.3" y="2800.4" font-size="62.4px" font-family="CMUBright-Roman" style="text-anchor:end;fill:rgb(0,0,0);" transform="rotate(-89.7,1517.3,2800.4)" >LG15</text>
<path d="M1561.649,2673.382 A1175.000,1175.000 40.000 0,1 1426.354,2672.690 L1420.087,2772.493 A1275.000,1275.000 0.000 0,0 1566.895,2773.244 Z" style="stroke-width:1.0;stroke:rgb(0,0,0);stroke-linecap:round;fill:none;" />
<path d="M1422.215,2672.422 A1175.000,1175.000 40.000 0,1 1316.858,2660.639 L1301.271,2759.417 A1275.000,1275.000 0.000 0,0 1415.595,2772.203 Z" style="stroke-width:1.0;stroke:rgb(0,0,0);stroke-linecap:round;fill:rgb(239,243,255);" />
<text x="1379.3" y="2794.9" font-size="62.4px" font-family="CMUBright-Roman" style="text-anchor:end;fill:rgb(0,0,0);" transform="rotate(-83.6,1379.3,2794.9)" >LG16</text>
<path d="M1422.215,2672.422 A1175.000,1175.000 40.000 0,1 1316.858,2660.639 L1301.271,2759.417 A1275.000,1275.000 0.000 0,0 1415.595,2772.203 Z" style="stroke-width:1.0;stroke:rgb(0,0,0);stroke-linecap:round;fill:none;" />
<path d="M1312.761,2659.986 A1175.000,1175.000 40.000 0,1 1266.605,2651.587 L1246.741,2749.594 A1275.000,1275.000 0.000 0,0 1296.826,2758.708 Z" style="stroke-width:1.0;stroke:rgb(0,0,0);stroke-linecap:round;fill:rgb(239,243,255);" />
<text x="1290.8" y="2783.6" font-size="62.4px" font-family="CMUBright-Roman" style="text-anchor:end;fill:rgb(0,0,0);" transform="rotate(-79.7,1290.8,2783.6)" >LG17</text>
<path d="M1312.761,2659.986 A1175.000,1175.000 40.000 0,1 1266.605,2651.587 L1246.741,2749.594 A1275.000,1275.000 0.000 0,0 1296.826,2758.708 Z" style="stroke-width:1.0;stroke:rgb(0,0,0);stroke-linecap:round;fill:none;" />
<path d="M1262.541,2650.755 A1175.000,1175.000 40.000 0,1 1178.758,2630.234 L1151.419,2726.424 A1275.000,1275.000 0.000 0,0 1242.331,2748.692 Z" style="stroke-width:1.0;stroke:rgb(0,0,0);stroke-linecap:round;fill:rgb(239,243,255);" />
<text x="1214.0" y="2768.7" font-size="62.4px" font-family="CMUBright-Roman" style="text-anchor:end;fill:rgb(0,0,0);" transform="rotate(-76.2,1214.0,2768.7)" >LG18</text>
<path d="M1262.541,2650.755 A1175.000,1175.000 40.000 0,1 1178.758,2630.234 L1151.419,2726.424 A1275.000,1275.000 0.000 0,0 1242.331,2748.692 Z" style="stroke-width:1.0;stroke:rgb(0,0,0);stroke-linecap:round;fill:none;" />
<path d="M1174.770,2629.093 A1175.000,1175.000 40.000 0,1 1098.010,2604.097 L1063.799,2698.062 A1275.000,1275.000 0.000 0,0 1147.091,2725.186 Z" style="stroke-width:1.0;stroke:rgb(0,0,0);stroke-linecap:round;fill:rgb(239,243,255);" />
<text x="1120.2" y="2743.8" font-size="62.4px" font-family="CMUBright-Roman" style="text-anchor:end;fill:rgb(0,0,0);" transform="rotate(-72.0,1120.2,2743.8)" >LG19</text>
<path d="M1174.770,2629.093 A1175.000,1175.000 40.000 0,1 1098.010,2604.097 L1063.799,2698.062 A1275.000,1275.000 0.000 0,0 1147.091,2725.186 Z" style="stroke-width:1.0;stroke:rgb(0,0,0);stroke-linecap:round;fill:none;" />
<path d="M1094.115,2602.671 A1175.000,1175.000 40.000 0,1 636.525,2296.892 L563.038,2364.713 A1275.000,1275.000 0.000 0,0 1059.572,2696.515 Z" style="stroke-width:1.0;stroke:rgb(0,0,0);stroke-linecap:round;fill:rgb(254,229,217);" />
<text x="796.3" y="2593.6" font-size="62.4px" font-family="CMUBright-Roman" style="text-anchor:end;fill:rgb(0,0,0);" transform="rotate(-56.2,796.3,2593.6)" >115</text>
<path d="M1094.115,2602.671 A1175.000,1175.000 40.000 0,1 636.525,2296.892 L563.038,2364.713 A1275.000,1275.000 0.000 0,0 1059.572,2696.515 Z" style="stroke-width:1.0;stroke:rgb(0,0,0);stroke-linecap:round;fill:none;" />
<path d="M633.718,2293.839 A1175.000,1175.000 40.000 0,1 389.438,1883.766 L294.922,1916.427 A1275.000,1275.000 0.000 0,0 559.991,2361.399 Z" style="stroke-width:1.0;stroke:rgb(0,0,0);stroke-linecap:round;fill:rgb(254,229,217);" />
<text x="394.4" y="2184.8" font-size="62.4px" font-family="CMUBright-Roman" style="text-anchor:end;fill:rgb(0,0,0);" transform="rotate(-30.8,394.4,2184.8)" >116</text>
<path d="M633.718,2293.839 A1175.000,1175.000 40.000 0,1 389.438,1883.766 L294.922,1916.427 A1275.000,1275.000 0.000 0,0 559.991,2361.399 Z" style="stroke-width:1.0;stroke:rgb(0,0,0);stroke-linecap:round;fill:none;" />
<path d="M388.090,1879.843 A1175.000,1175.000 40.000 0,1 326.537,1439.912 L226.668,1434.799 A1275.000,1275.000 0.000 0,0 293.459,1912.170 Z" style="stroke-width:1.0;stroke:rgb(0,0,0);stroke-linecap:round;fill:rgb(254,229,217);" />
<text x="215.4" y="1702.5" font-size="62.4px" font-family="CMUBright-Roman" style="text-anchor:end;fill:rgb(0,0,0);" transform="rotate(-8.0,215.4,1702.5)" >117</text>
<path d="M388.090,1879.843 A1175.000,1175.000 40.000 0,1 326.537,1439.912 L226.668,1434.799 A1275.000,1275.000 0.000 0,0 293.459,1912.170 Z" style="stroke-width:1.0;stroke:rgb(0,0,0);stroke-linecap:round;fill:none;" />
<path d="M326.757,1435.770 A1175.000,1175.000 40.000 0,1 385.885,1126.674 L291.067,1094.901 A1275.000,1275.000 0.000 0,0 226.906,1430.304 Z" style="stroke-width:1.0;stroke:rgb(0,0,0);stroke-linecap:round;fill:rgb(254,229,217);" />
<text x="218.6" y="1277.8" font-size="62.4px" font-family="CMUBright-Roman" style="text-anchor:end;fill:rgb(0,0,0);" transform="rotate(10.8,218.6,1277.8)" >118</text>
<path d="M326.757,1435.770 A1175.000,1175.000 40.000 0,1 385.885,1126.674 L291.067,1094.901 A1275.000,1275.000 0.000 0,0 226.906,1430.304 Z" style="stroke-width:1.0;stroke:rgb(0,0,0);stroke-linecap:round;fill:none;" />
<path d="M387.210,1122.743 A1175.000,1175.000 40.000 0,1 509.498,867.916 L425.200,814.122 A1275.000,1275.000 0.000 0,0 292.504,1090.636 Z" style="stroke-width:1.0;stroke:rgb(0,0,0);stroke-linecap:round;fill:rgb(254,229,217);" />
<text x="318.0" y="957.7" font-size="62.4px" font-family="CMUBright-Roman" style="text-anchor:end;fill:rgb(0,0,0);" transform="rotate(25.6,318.0,957.7)" >119</text>
<path d="M387.210,1122.743 A1175.000,1175.000 40.000 0,1 509.498,867.916 L425.200,814.122 A1275.000,1275.000 0.000 0,0 292.504,1090.636 Z" style="stroke-width:1.0;stroke:rgb(0,0,0);stroke-linecap:round;fill:none;" />
<path d="M511.735,864.423 A1175.000,1175.000 40.000 0,1 632.661,707.316 L558.845,639.853 A1275.000,1275.000 0.000 0,0 427.628,810.331 Z" style="stroke-width:1.0;stroke:rgb(0,0,0);stroke-linecap:round;fill:rgb(254,229,217);" />
<text x="455.9" y="724.7" font-size="62.4px" font-family="CMUBright-Roman" style="text-anchor:end;fill:rgb(0,0,0);" transform="rotate(37.6,455.9,724.7)" >120</text>
<path d="M511.735,864.423 A1175.000,1175.000 40.000 0,1 632.661,707.316 L558.845,639.853 A1275.000,1275.000 0.000 0,0 427.628,810.331 Z" style="stroke-width:1.0;stroke:rgb(0,0,0);stroke-linecap:round;fill:none;" />
<path d="M635.465,704.258 A1175.000,1175.000 40.000 0,1 756.267,590.338 L692.970,512.920 A1275.000,1275.000 0.000 0,0 561.888,636.536 Z" style="stroke-width:1.0;stroke:rgb(0,0,0);stroke-linecap:round;fill:rgb(254,229,217);" />
<text x="591.9" y="569.1" font-size="62.4px" font-family="CMUBright-Roman" style="text-anchor:end;fill:rgb(0,0,0);" transform="rotate(46.7,591.9,569.1)" >121</text>
<path d="M635.465,704.258 A1175.000,1175.000 40.000 0,1 756.267,590.338 L692.970,512.920 A1275.000,1275.000 0.000 0,0 561.888,636.536 Z" style="stroke-width:1.0;stroke:rgb(0,0,0);stroke-linecap:round;fill:none;" />
<path d="M759.483,587.718 A1175.000,1175.000 40.000 0,1 879.312,502.317 L826.487,417.408 A1275.000,1275.000 0.000 0,0 696.460,510.077 Z" style="stroke-width:1.0;stroke:rgb(0,0,0);stroke-linecap:round;fill:rgb(254,229,217);" />
<text x="727.4" y="453.9" font-size="62.4px" font-family="CMUBright-Roman" style="text-anchor:end;fill:rgb(0,0,0);" transform="rotate(54.5,727.4,453.9)" >122</text>
<path d="M759.483,587.718 A1175.000,1175.000 40.000 0,1 879.312,502.317 L826.487,417.408 A1275.000,1275.000 0.000 0,0 696.460,510.077 Z" style="stroke-width:1.0;stroke:rgb(0,0,0);stroke-linecap:round;fill:none;" />
<path d="M882.838,500.132 A1175.000,1175.000 40.000 0,1 1002.715,435.419 L960.393,344.816 A1275.000,1275.000 0.000 0,0 830.314,415.037 Z" style="stroke-width:1.0;stroke:rgb(0,0,0);stroke-linecap:round;fill:rgb(254,229,217);" />
<text x="862.5" y="366.5" font-size="62.4px" font-family="CMUBright-Roman" style="text-anchor:end;fill:rgb(0,0,0);" transform="rotate(61.6,862.5,366.5)" >123</text>
<path d="M882.838,500.132 A1175.000,1175.000 40.000 0,1 1002.715,435.419 L960.393,344.816 A1275.000,1275.000 0.000 0,0 830.314,415.037 Z" style="stroke-width:1.0;stroke:rgb(0,0,0);stroke-linecap:round;fill:none;" />
<path d="M1006.477,433.670 A1175.000,1175.000 40.000 0,1 1098.029,395.897 L1063.818,301.930 A1275.000,1275.000 0.000 0,0 964.475,342.918 Z" style="stroke-width:1.0;stroke:rgb(0,0,0);stroke-linecap:round;fill:rgb(254,229,217);" />
<text x="983.7" y="306.4" font-size="62.4px" font-family="CMUBright-Roman" style="text-anchor:end;fill:rgb(0,0,0);" transform="rotate(67.6,983.7,306.4)" >124</text>
<path d="M1006.477,433.670 A1175.000,1175.000 40.000 0,1 1098.029,395.897 L1063.818,301.930 A1275.000,1275.000 0.000 0,0 964.475,342.918 Z" style="stroke-width:1.0;stroke:rgb(0,0,0);stroke-linecap:round;fill:none;" />
<path d="M1101.929,394.484 A1175.000,1175.000 40.000 0,1 1188.604,367.014 L1162.102,270.590 A1275.000,1275.000 0.000 0,0 1068.051,300.398 Z" style="stroke-width:1.0;stroke:rgb(0,0,0);stroke-linecap:round;fill:rgb(254,229,217);" />
<text x="1085.7" y="267.3" font-size="62.4px" font-family="CMUBright-Roman" style="text-anchor:end;fill:rgb(0,0,0);" transform="rotate(72.4,1085.7,267.3)" >125</text>
<path d="M1101.929,394.484 A1175.000,1175.000 40.000 0,1 1188.604,367.014 L1162.102,270.590 A1275.000,1275.000 0.000 0,0 1068.051,300.398 Z" style="stroke-width:1.0;stroke:rgb(0,0,0);stroke-linecap:round;fill:none;" />
<path d="M1192.605,365.922 A1175.000,1175.000 40.000 0,1 1277.691,346.222 L1258.771,248.028 A1275.000,1275.000 0.000 0,0 1166.444,269.404 Z" style="stroke-width:1.0;stroke:rgb(0,0,0);stroke-linecap:round;fill:rgb(254,229,217);" />
<text x="1184.8" y="238.3" font-size="62.4px" font-family="CMUBright-Roman" style="text-anchor:end;fill:rgb(0,0,0);" transform="rotate(77.0,1184.8,238.3)" >126</text>
<path d="M1192.605,365.922 A1175.000,1175.000 40.000 0,1 1277.691,346.222 L1258.771,248.028 A1275.000,1275.000 0.000 0,0 1166.444,269.404 Z" style="stroke-width:1.0;stroke:rgb(0,0,0);stroke-linecap:round;fill:none;" />
<path d="M1281.765,345.444 A1175.000,1175.000 40.000 0,1 1365.476,332.726 L1354.027,233.384 A1275.000,1275.000 0.000 0,0 1263.192,247.184 Z" style="stroke-width:1.0;stroke:rgb(0,0,0);stroke-linecap:round;fill:rgb(254,229,217);" />
<text x="1282.4" y="217.8" font-size="62.4px" font-family="CMUBright-Roman" style="text-anchor:end;fill:rgb(0,0,0);" transform="rotate(81.4,1282.4,217.8)" >127</text>
<path d="M1281.765,345.444 A1175.000,1175.000 40.000 0,1 1365.476,332.726 L1354.027,233.384 A1275.000,1275.000 0.000 0,0 1263.192,247.184 Z" style="stroke-width:1.0;stroke:rgb(0,0,0);stroke-linecap:round;fill:none;" />
<path d="M1369.598,332.258 A1175.000,1175.000 40.000 0,1 1444.281,326.322 L1439.539,226.434 A1275.000,1275.000 0.000 0,0 1358.500,232.876 Z" style="stroke-width:1.0;stroke:rgb(0,0,0);stroke-linecap:round;fill:rgb(254,229,217);" />
<text x="1374.5" y="205.6" font-size="62.4px" font-family="CMUBright-Roman" style="text-anchor:end;fill:rgb(0,0,0);" transform="rotate(85.5,1374.5,205.6)" >128</text>
<path d="M1369.598,332.258 A1175.000,1175.000 40.000 0,1 1444.281,326.322 L1439.539,226.434 A1275.000,1275.000 0.000 0,0 1358.500,232.876 Z" style="stroke-width:1.0;stroke:rgb(0,0,0);stroke-linecap:round;fill:none;" />
<path d="M1448.425,326.132 A1175.000,1175.000 40.000 0,1 1495.852,325.007 L1495.499,225.008 A1275.000,1275.000 0.000 0,0 1444.035,226.229 Z" style="stroke-width:1.0;stroke:rgb(0,0,0);stroke-linecap:round;fill:rgb(254,229,217);" />
<text x="1446.7" y="200.6" font-size="62.4px" font-family="CMUBright-Roman" style="text-anchor:end;fill:rgb(0,0,0);" transform="rotate(88.6,1446.7,200.6)" >129</text>
<path d="M1448.425,326.132 A1175.000,1175.000 40.000 0,1 1495.852,325.007 L1495.499,225.008 A1275.000,1275.000 0.000 0,0 1444.035,226.229 Z" style="stroke-width:1.0;stroke:rgb(0,0,0);stroke-linecap:round;fill:none;" />
</g>
<defs>
<pattern id="vline" width="10" height="10" patternTransform="rotate(0 0 0)" patternUnits="userSpaceOnUse"><line x1="0" y1="0" x2="0" y2="10" style="stroke:black;stroke-width:5" /></pattern>
<pattern id="checker" width="10" height="10" patternTransform="rotate(45 0 0)" patternUnits="userSpaceOnUse"><line x1="0" y1="0" x2="10" y2="0" style="stroke:black;stroke-width:2" /><line x1="0" y1="0" x2="0" y2="10" style="stroke:black;stroke-width:2" /></pattern>
<pattern id="checker" width="10" height="10" patternTransform="rotate(45 0 0)" patternUnits="userSpaceOnUse"><line x1="0" y1="0" x2="10" y2="0" style="stroke:black;stroke-width:5" /><line x1="0" y1="0" x2="0" y2="10" style="stroke:black;stroke-width:4" /></pattern>
<pattern id="vline-sparse" width="10" height="10" patternTransform="rotate(0 0 0)" patternUnits="userSpaceOnUse"><line x1="0" y1="0" x2="0" y2="10" style="stroke:black;stroke-width:2" /></pattern>
<pattern id="hline" width="10" height="10" patternTransform="rotate(0 0 0)" patternUnits="userSpaceOnUse"><line x1="0" y1="0" x2="10" y2="0" style="stroke:black;stroke-width:5" /></pattern>
<pattern id="hline-sparse" width="10" height="10" patternTransform="rotate(0 0 0)" patternUnits="userSpaceOnUse"><line x1="0" y1="0" x2="10" y2="0" style="stroke:black;stroke-width:2" /></pattern>
</defs>
</svg>
